<svg width="24" height="24" viewBox="0 0 24 24" fill="none" xmlns="http://www.w3.org/2000/svg">
    <g opacity="0.9">
        <path fill-rule="evenodd" clip-rule="evenodd" d="M20.8002 4.79312V19.2073C20.8002 20.087 20.0885 20.8002 19.2073 20.8002H4.79312C3.91337 20.8002 3.2002 20.0885 3.2002 19.2073V4.79312C3.2002 3.91337 3.91193 3.2002 4.79312 3.2002H19.2073C20.087 3.2002 20.8002 3.91193 20.8002 4.79312ZM19.2002 4.8002V19.2002H4.8002V4.8002H19.2002ZM16.8002 12.8002C17.242 12.8002 17.6002 12.442 17.6002 12.0002V7.2002C17.6002 6.75837 17.242 6.4002 16.8002 6.4002H12.0002C11.5584 6.4002 11.2002 6.75837 11.2002 7.2002C11.2002 7.64202 11.5584 8.0002 12.0002 8.0002H14.8642L8.23451 14.6345C7.92209 14.9469 7.92209 15.4535 8.23451 15.7659C8.54693 16.0783 9.05346 16.0783 9.36588 15.7659L16.0002 9.13545V12.0002C16.0002 12.442 16.3584 12.8002 16.8002 12.8002Z" fill="currentColor"/>
    </g>
</svg>
